<svg id="Arrow_3" xmlns="http://www.w3.org/2000/svg" width="41" height="14" viewBox="0 0 41 14">
  <g id="Artboard" transform="translate(-105.5 -862.5)">
    <g id="Stacked-Group" transform="translate(92 55)">
      <path id="arrow2" d="M34,794a1,1,0,0,1,.993.883L35,795v36.585l4.293-4.292.094-.083a1,1,0,0,1,1.32,1.5h0l-6,6a1,1,0,0,1-.09.08l-.021.016q-.036.027-.075.05l-.037.021-.061.031-.052.022-.06.022-.046.014-.065.016-.052.009L34.09,835l-.07,0h-.039l-.07,0L34,835a1.007,1.007,0,0,1-.149-.011l-.052-.009-.065-.015-.046-.014-.059-.021-.052-.023-.061-.031-.036-.021q-.038-.024-.074-.05a1,1,0,0,1-.112-.1l.09.08a1,1,0,0,1-.09-.08l-6-6-.083-.094a1,1,0,0,1,.083-1.32h0l.094-.083a1,1,0,0,1,1.32.083h0L33,831.585V795A1,1,0,0,1,34,794Z" transform="translate(-780.5 848.5) rotate(-90)" fill="#2b61d3"/>
    </g>
  </g>
</svg>
