<svg id="Arrow_2" xmlns="http://www.w3.org/2000/svg" width="16" height="12" viewBox="0 0 16 12">
  <g id="Artboard" transform="translate(-118 -669)">
    <g id="Stacked-Group" transform="translate(92 55)">
      <path id="arrow" d="M36.525,614.153l.087.076,5.161,5.217a.789.789,0,0,1,.075,1.019l-.075.088-5.161,5.217a.768.768,0,0,1-1.095,0,.789.789,0,0,1-.075-1.019l.075-.088,3.84-3.882H26.774a.783.783,0,0,1-.105-1.558l.105-.007H39.356l-3.839-3.881a.789.789,0,0,1-.075-1.019l.075-.088A.768.768,0,0,1,36.525,614.153Z" fill="#2b61d3"/>
    </g>
  </g>
</svg>
