<svg xmlns="http://www.w3.org/2000/svg" width="16" height="16" viewBox="0 0 16 16">
  <path id="Combined_Shape" data-name="Combined Shape" d="M6.178,15.974a.521.521,0,0,1-.345-.5V12.252l2.712.967L6.736,15.787a.491.491,0,0,1-.4.213A.467.467,0,0,1,6.178,15.974Zm7.328-2.089L6.517,11.393l6.872-8.64-8.88,7.924L.338,9.19A.519.519,0,0,1,0,8.735a.527.527,0,0,1,.267-.5l15-8.174A.483.483,0,0,1,15.79.1a.532.532,0,0,1,.205.5L14.161,13.469a.529.529,0,0,1-.235.369.483.483,0,0,1-.421.048Z" transform="translate(0 0)" fill="#fff"/>
</svg>
