<svg id="Icon_11" xmlns="http://www.w3.org/2000/svg" width="49" height="49" viewBox="0 0 49 49">
  <g id="Artboard" transform="translate(-102 -1100)">
    <g id="Stacked-Group" transform="translate(92 55)">
      <path id="suppliers" d="M55.105,1045a3.894,3.894,0,0,0-3.614,5.346l.1.226.153.319-6.908,6.908-.351-.293a15.579,15.579,0,0,0-19.658-.254l-.313.254-.351.293-6.908-6.908.153-.319a3.894,3.894,0,1,0-2.062,1.936l.226-.1.319-.153,6.908,6.908-.293.351a15.579,15.579,0,0,0-.254,19.658l.254.313.293.351-6.908,6.908-.319-.153a3.894,3.894,0,1,0,1.936,2.063l-.1-.226-.153-.319,6.908-6.908.351.293a15.579,15.579,0,0,0,19.658.254l.313-.254.351-.293,6.908,6.908-.153.319a3.894,3.894,0,1,0,2.062-1.936l-.226.1-.319.153-6.908-6.908.293-.351a15.579,15.579,0,0,0,.254-19.658l-.254-.313-.293-.351,6.908-6.908.319.153A3.894,3.894,0,1,0,55.105,1045Zm0,43.141a1.965,1.965,0,1,1-1.965,1.965A1.967,1.967,0,0,1,55.105,1088.141Zm-41.211,0a1.965,1.965,0,1,1-1.965,1.965A1.967,1.967,0,0,1,13.895,1088.141Zm25.49-17.676-.021.52a26.441,26.441,0,0,1-1.616,8.515c-.89,2.224-2.1,3.684-3.247,3.684s-2.358-1.46-3.247-3.684a25.869,25.869,0,0,1-1.588-7.946l-.028-.568-.021-.52Zm8.775,0-.062.555a13.716,13.716,0,0,1-8.21,11.057l-.308.128-1.247.5.617-1.194q.315-.609.59-1.3a28.029,28.029,0,0,0,1.73-8.689l.027-.581.018-.481Zm-20.475,0,.018.481a28.574,28.574,0,0,0,1.757,9.271q.183.458.384.881l.205.415.617,1.194-1.247-.5a13.72,13.72,0,0,1-8.477-10.852l-.041-.334-.062-.555Zm10.648-14.171,1.247.5a13.72,13.72,0,0,1,8.477,10.852l.041.334.062.555H41.315l-.018-.481a28.574,28.574,0,0,0-1.757-9.271q-.183-.458-.384-.881l-.205-.415Zm-7.667,0-.615,1.193q-.317.614-.589,1.3a28.018,28.018,0,0,0-1.731,8.689l-.027.581-.018.481H20.84l.062-.555a13.716,13.716,0,0,1,8.21-11.057l.308-.128Zm3.834-.478c1.152,0,2.358,1.46,3.247,3.684a25.869,25.869,0,0,1,1.588,7.946l.028.568.021.52h-9.77l.021-.52a26.441,26.441,0,0,1,1.616-8.515C32.142,1057.276,33.348,1055.816,34.5,1055.816Zm20.605-8.887a1.965,1.965,0,1,1-1.965,1.965A1.967,1.967,0,0,1,55.105,1046.93Zm-41.211,0a1.965,1.965,0,1,1-1.965,1.965A1.967,1.967,0,0,1,13.895,1046.93Z" fill="#2b61d3"/>
    </g>
  </g>
</svg>
