<svg id="Icon_9" xmlns="http://www.w3.org/2000/svg" width="49" height="49" viewBox="0 0 49 49">
  <g id="Artboard" transform="translate(-102 -940)">
    <g id="Stacked-Group" transform="translate(92 55)">
      <path id="operator" d="M35.965,885H25.711a.965.965,0,0,0-.958.852l-.006.113v10.754H17.684l-.118-.333a3.895,3.895,0,1,0-.073,2.786l.073-.19.118-.333h7.062V909.4a.965.965,0,0,0,.852.958l.113.006h7.824v9.984H16.922a.965.965,0,0,0-.958.852l-.006.113v11.719a.965.965,0,0,0,.852.958l.113.006H52.078a.965.965,0,0,0,.958-.852l.006-.113V921.316a.965.965,0,0,0-.852-.958l-.113-.006H35.465v-9.984h7.824a.965.965,0,0,0,.958-.852l.006-.113V898.648h7.062l.118.333a3.895,3.895,0,1,0,.073-2.786l-.073.19-.118.333H44.254v-3.43a.981.981,0,0,0-.2-.588l-.082-.094-7.324-7.324a.974.974,0,0,0-.555-.274Zm15.148,37.281v9.789H17.887v-9.789ZM35,886.93v6.359a.965.965,0,0,0,.852.958l.113.006h6.359v14.184H26.676V886.93Zm-21.105,8.789a1.965,1.965,0,1,1-1.965,1.965A1.967,1.967,0,0,1,13.895,895.719Zm41.211,0a1.965,1.965,0,1,1-1.965,1.965A1.967,1.967,0,0,1,55.105,895.719ZM36.93,892.324v-4.03l4.03,4.03Z" fill="#2b61d3"/>
    </g>
  </g>
</svg>
