<svg id="Icon_7" xmlns="http://www.w3.org/2000/svg" width="68" height="68" viewBox="0 0 68 68">
  <g id="Artboard" transform="translate(-92 -731)">
    <g id="Stacked-Group" transform="translate(92 55)">
      <path id="design" d="M66.949,676H1.051a1.051,1.051,0,0,0-1.045.936L0,677.051v45.391a1.051,1.051,0,0,0,.936,1.045l.115.006h20.4l.644.322a12.152,12.152,0,0,1,6.486,8.36l.067.341.216,1.18H25.8a1.051,1.051,0,0,0-1.045.936l-.006.115v8.2a1.051,1.051,0,0,0,.936,1.045L25.8,744H42.2a1.051,1.051,0,0,0,1.045-.936l.006-.115v-8.2a1.051,1.051,0,0,0-.936-1.045L42.2,733.7H39.139l.216-1.18a12.146,12.146,0,0,1,6.242-8.54l.312-.161.644-.322h20.4a1.051,1.051,0,0,0,1.045-.936l.006-.115V677.051a1.051,1.051,0,0,0-.936-1.045Zm-25.8,59.8v6.1h-14.3v-6.1Zm-6.1-17.457v-9.152l9.634,12.846-.921.578a14.319,14.319,0,0,0-6.52,9.793l-.064.425-.117.866H30.936l-.117-.866a14.319,14.319,0,0,0-6.216-9.98l-.367-.238-.921-.578,9.634-12.846v9.152a1.051,1.051,0,0,0,2.1.115ZM65.9,690.68v30.711H46.83L35.912,706.834l.894-.583a5.185,5.185,0,0,0,1.958-2.357l.093-.243.236-.665H49.355v3.051a1.051,1.051,0,0,0,.936,1.045l.115.006h8.2a1.051,1.051,0,0,0,1.045-.936l.006-.115v-8.2a1.051,1.051,0,0,0-.936-1.045l-.115-.006h-8.2a1.051,1.051,0,0,0-1.045.936l-.006.115v3.051H39.094l-.236-.666A5.151,5.151,0,0,0,29.225,700l-.082.216-.236.666H18.645v-3.051a1.051,1.051,0,0,0-.936-1.045l-.115-.006h-8.2a1.051,1.051,0,0,0-1.045.936l-.006.115v8.2a1.051,1.051,0,0,0,.936,1.045l.115.006h8.2a1.051,1.051,0,0,0,1.045-.936l.006-.115v-3.051H28.906l.236.665a5.179,5.179,0,0,0,1.836,2.452l.215.148.894.583L21.17,721.391H2.1V690.68Zm-31.9,8.2a3.051,3.051,0,1,1-3.051,3.051A3.053,3.053,0,0,1,34,698.883Zm23.559,0v6.1h-6.1v-6.1Zm-41.016,0v6.1h-6.1v-6.1ZM65.9,678.1v10.477H51.457V678.1Zm-16.543,0v10.477H2.1V678.1Z" fill="#2b61d3"/>
    </g>
  </g>
</svg>
