<svg id="Icon_8" xmlns="http://www.w3.org/2000/svg" width="49" height="49" viewBox="0 0 49 49">
  <g id="Artboard" transform="translate(-102 -1199)">
    <g id="Stacked-Group" transform="translate(92 55)">
      <path id="installers" d="M46.121,1144H10.965a.965.965,0,0,0-.958.852l-.006.113v35.156a.965.965,0,0,0,.852.958l.113.007H28.327l-.4.737a6.817,6.817,0,1,0,12.78,2.508l-.063-.475,3.921-3.921,6.922,6.922-1.389,1.389a.966.966,0,0,0,.084,1.44l.1.07,5.179,3.107a.965.965,0,0,0,1.08-.059l.1-.086,2.071-2.071a.966.966,0,0,0,.205-1.062l-.06-.117-3.108-5.179a.966.966,0,0,0-1.417-.267l-.092.082-1.389,1.39-6.922-6.922,3.4-3.4.247.035a6.812,6.812,0,1,0-1.534-13.089l-.257.106-.7.305v-17.565a.965.965,0,0,0-.852-.958Zm6.22,44.736,2.4-2.4,2.084,3.474-1.007,1.006Zm.073-24.774.216.1.639.3-3.43,3.43a.965.965,0,0,0,1.273,1.445l.091-.08,3.43-3.429.3.639a4.9,4.9,0,0,1-.955,5.569,4.846,4.846,0,0,1-4.711,1.246.966.966,0,0,0-.833.167l-.1.084-9.436,9.436a.964.964,0,0,0-.25.929,4.882,4.882,0,0,1-6.57,5.779l-.249-.111-.637-.3,3.431-3.431a.965.965,0,0,0-1.274-1.445l-.091.08-3.43,3.43-.305-.637a4.875,4.875,0,0,1,5.668-6.819.963.963,0,0,0,.832-.166l.1-.084,9.436-9.436a.965.965,0,0,0,.25-.929,4.847,4.847,0,0,1,1.246-4.712,4.9,4.9,0,0,1,5.135-1.137Zm-40.484,5.406h17.93l5.742,5.742a3.861,3.861,0,0,0,.841.638l.234.121.639.3-2.175,2.175-.247-.035a6.884,6.884,0,0,0-4.012.648l-.261.137-.129.071-.183-.013H11.93Zm19.5-1.156,2.779-2.779,5.532,5.533a1.965,1.965,0,0,1-2.654,2.893l-.125-.115Zm13.723-10.563v6.609l-.1.133a6.854,6.854,0,0,0-1.305,4.732l.035.3.035.247-1.646,1.647-.305-.637a3.9,3.9,0,0,0-.58-.88l-.182-.195-6.215-6.215a.965.965,0,0,0-1.274-.08l-.091.08-4.051,4.051H11.93v-9.789Zm0-11.719v9.789H11.93v-9.789Z" fill="#2b61d3"/>
    </g>
  </g>
</svg>
