<svg id="Icon_6" xmlns="http://www.w3.org/2000/svg" width="44" height="44" viewBox="0 0 44 44">
  <g id="Artboard" transform="translate(-104 -387)">
    <g id="Stacked-Group" transform="translate(92 55)">
      <path id="_6" data-name="6" d="M32.918,332.062a.9.9,0,0,0-.577-.028l-.112.04-19.595,8.394-.052.038-.054.028a.81.81,0,0,0-.24.183l-.108.132-.078.117-.038.049-.031.093-.015.061-.01.061-.008.124v25.286a.932.932,0,0,0,.455.8l.11.056,19.628,8.413.033.012a.938.938,0,0,0,.584.051l.116-.035L55.4,367.513a.936.936,0,0,0,.6-.757l.007-.115v-25.21l-.012-.053-.018-.216a.644.644,0,0,0-.017-.1l-.012-.037-.072-.1-.081-.134-.086-.1a.8.8,0,0,0-.276-.192l-.049-.019c-.013-.006-.021-.01-.019-.011ZM54.137,342.7v23.293l-20.609,7.729V350.43l6.564-2.462v8.5a.93.93,0,0,0,1.135.908l.126-.037,5.616-2.106a.943.943,0,0,0,.6-.758l.007-.114v-9.2ZM13.863,366.026V342.773l17.8,7.628v23.253Zm4.689-3.519a.934.934,0,0,0-.865,1.284.914.914,0,0,0,.389.45l.11.055,5.62,2.388a.932.932,0,0,0,1.225-1.209.914.914,0,0,0-.389-.45l-.11-.055-5.62-2.389A.908.908,0,0,0,18.552,362.507Zm27.157-16.645v7.856l-3.755,1.408V347.27Zm-13.2-11.877.221-.005,19.686,7.378-5.759,2.16-8.06-3.611a.9.9,0,0,0-.718-.012l-.121.056L32.232,342.3a.937.937,0,0,0-.1,1.671l.112.055,6.221,2.569-5.734,2.146-.221-.005L15.3,341.358ZM35,343.148l3.218-1.368,5.958,2.667-3.047,1.142-.218,0Z" fill="#2b61d3"/>
    </g>
  </g>
</svg>
