<svg id="Icon_5" xmlns="http://www.w3.org/2000/svg" width="37" height="44" viewBox="0 0 37 44">
  <g id="Artboard" transform="translate(-108 -575)">
    <g id="Stacked-Group" transform="translate(92 55)">
      <path id="_5" data-name="5" d="M35.256,520.3a1.085,1.085,0,0,0-1.507,0c-4.395,4.251-9.677,6.234-16.576,6.234a1.078,1.078,0,0,0-1.081,1.075l-.007,1.233-.067,3.942a62.225,62.225,0,0,0,.416,9.875c1.386,10.365,6.51,17.415,17.714,21.277a1.085,1.085,0,0,0,.708,0c8.537-2.943,13.6-7.838,16.1-14.575,1.76-4.735,2.14-8.948,2.019-17.129l-.059-3.484-.006-.817v-.322a1.078,1.078,0,0,0-1.081-1.075C44.934,526.539,39.652,524.555,35.256,520.3Zm-.753,2.248.33.286a23.822,23.822,0,0,0,14.9,5.791l.547.027.475.02.068,4.083c.1,7.661-.239,11.424-1.775,15.669-2.164,5.982-6.546,10.348-13.9,13.12l-.645.237-.172-.062c-7.642-2.761-12.165-7.185-14.375-13.294l-.2-.576c-1.429-4.211-1.7-8.138-1.556-16.162l.051-3.015.475-.02a24.049,24.049,0,0,0,15.071-5.5l.377-.32Zm7.337,14.329a1.085,1.085,0,0,0-1.434-.084l-.094.083-8,7.955-3.617-3.6a1.085,1.085,0,0,0-1.528,0,1.071,1.071,0,0,0-.084,1.427l.084.094,4.381,4.358a1.086,1.086,0,0,0,1.436.082l.092-.082L41.84,538.4A1.071,1.071,0,0,0,41.84,536.882Z" fill="#2b61d3"/>
    </g>
  </g>
</svg>
