<svg id="Icon_4" xmlns="http://www.w3.org/2000/svg" width="44" height="44" viewBox="0 0 44 44">
  <g id="Artboard" transform="translate(-104 -481)">
    <g id="Stacked-Group" transform="translate(92 55)">
      <path id="_4" data-name="4" d="M33.121,426l-.208,0a4.625,4.625,0,0,0-4.413,4.4l-.005.217v.917l-.011.149a1.293,1.293,0,0,1-.672.959l-.125.059-.051.021-.144.049a1.293,1.293,0,0,1-1.153-.232l-.1-.092-.625-.625-.185-.176a4.619,4.619,0,0,0-6.175,0l-.178.169-1.248,1.247-.175.185a4.626,4.626,0,0,0,0,6.176l.169.178.648.649.1.113a1.294,1.294,0,0,1,.206,1.141l-.051.146-.022.051-.067.136a1.291,1.291,0,0,1-.979.649l-.137.007h-.886l-.208,0a4.625,4.625,0,0,0-4.413,4.4l-.005.217v1.766l0,.208a4.625,4.625,0,0,0,4.4,4.413l.217.005h.917l.148.011a1.291,1.291,0,0,1,.958.67l.059.125.022.055.048.144a1.294,1.294,0,0,1-.223,1.14l-.1.114-.625.625-.176.185a4.619,4.619,0,0,0,0,6.175l.169.178,1.248,1.248.173.165a4.626,4.626,0,0,0,6.193,0l.172-.163.649-.648.111-.1a1.279,1.279,0,0,1,.776-.26,1.332,1.332,0,0,1,.389.058l.126.045.052.022.135.067a1.291,1.291,0,0,1,.647.978l.007.137v.886l0,.208a4.625,4.625,0,0,0,4.4,4.413l.217.005h1.766l.208,0a4.625,4.625,0,0,0,4.413-4.4l.005-.217v-.919l.013-.16a1.254,1.254,0,0,1,.138-.415l.072-.119a1.071,1.071,0,0,0-1.767-1.211,3.4,3.4,0,0,0-.591,1.7l-.008.229v.906l-.006.164a2.479,2.479,0,0,1-2.308,2.294l-.161.005H33.1l-.164-.006a2.479,2.479,0,0,1-2.294-2.308l-.005-.161V464.5l0-.19a3.428,3.428,0,0,0-1.944-2.907l-.206-.092-.2-.075a3.428,3.428,0,0,0-3.408.654l-.16.15-.642.642-.15.137a2.479,2.479,0,0,1-3.2-.014l-.145-.134L19.321,461.4l-.137-.15a2.477,2.477,0,0,1,.014-3.2l.134-.145.625-.624.143-.151a3.422,3.422,0,0,0,.677-3.4l-.088-.229-.078-.176a3.426,3.426,0,0,0-2.89-1.965l-.208-.006h-.906l-.164-.006a2.479,2.479,0,0,1-2.294-2.308l-.005-.161V447.1l.006-.164a2.479,2.479,0,0,1,2.308-2.294l.161-.005H17.5l.19,0a3.424,3.424,0,0,0,2.9-1.938l.093-.209.072-.187a3.428,3.428,0,0,0-.649-3.418l-.15-.16-.642-.642-.128-.139a2.48,2.48,0,0,1,.013-3.219l.124-.134,1.265-1.265.15-.137a2.477,2.477,0,0,1,3.2.014l.145.134.625.625.144.137a3.429,3.429,0,0,0,3.413.68l.223-.085.175-.078a3.425,3.425,0,0,0,1.963-2.89l.006-.208v-.906l.006-.164a2.479,2.479,0,0,1,2.308-2.294l.161-.005H34.9l.164.006a2.479,2.479,0,0,1,2.294,2.308l.005.161v.884l0,.19a3.424,3.424,0,0,0,1.938,2.9l.21.093.187.072a3.426,3.426,0,0,0,3.418-.649l.16-.15.642-.642.15-.137a2.476,2.476,0,0,1,3.2.014l.145.134,1.264,1.264.128.139a2.48,2.48,0,0,1-.013,3.219l-.124.134-.625.624-.143.151a3.427,3.427,0,0,0-.674,3.405l.086.225.078.175a3.426,3.426,0,0,0,2.89,1.963l.208.006h.906l.164.006a2.479,2.479,0,0,1,2.294,2.308l.005.161V448.9l-.006.164a2.479,2.479,0,0,1-2.308,2.294l-.161.005H50.5l-.241.008a3.4,3.4,0,0,0-1.7.591,1.072,1.072,0,0,0,1.09,1.84l.122-.072a1.252,1.252,0,0,1,.556-.213l.162-.01h.886l.208,0a4.625,4.625,0,0,0,4.413-4.4l.005-.217v-1.766l0-.208a4.625,4.625,0,0,0-4.4-4.413l-.217-.005h-.917l-.148-.011a1.3,1.3,0,0,1-.96-.674l-.06-.126-.021-.052-.048-.144a1.292,1.292,0,0,1,.234-1.151l.092-.1.625-.625.175-.185a4.626,4.626,0,0,0,0-6.175l-.169-.178-1.248-1.248-.185-.176a4.619,4.619,0,0,0-6.175,0l-.178.169-.649.647-.112.1a1.291,1.291,0,0,1-1.139.208l-.146-.051-.055-.024-.136-.067a1.291,1.291,0,0,1-.648-.978l-.007-.137v-.886l0-.208a4.625,4.625,0,0,0-4.4-4.413L34.887,426ZM34,438.5a9.585,9.585,0,1,0,5.239,17.607l.29-.2.484-.343,7.119,7.12.092.084a1.071,1.071,0,0,0,1.517-1.5l-.081-.091-7.137-7.137.334-.478.2-.293A9.579,9.579,0,0,0,34,438.5Zm0,2.143a7.442,7.442,0,1,1-7.442,7.442A7.45,7.45,0,0,1,34,440.647Z" fill="#2b61d3"/>
    </g>
  </g>
</svg>
