<svg id="Arrow_1" xmlns="http://www.w3.org/2000/svg" width="28.069" height="10.765" viewBox="0 0 28.069 10.765">
  <g id="Artboard" transform="translate(-112 -1039.118)">
    <g id="Stacked-Group" transform="translate(92 55)">
      <path id="arrow-draw" d="M41.3,984.164l.12.046,6.06,2.745a.992.992,0,0,1,.536,1.221l-.048.119-2.878,6a1.047,1.047,0,0,1-1.369.5.992.992,0,0,1-.536-1.221l.048-.119,1.721-3.583a32.247,32.247,0,0,1-24.333-.317,1.039,1.039,0,0,1-.545-1.347,1,1,0,0,1,1.317-.557,30.27,30.27,0,0,0,23.1.192l-3.954-1.792A.992.992,0,0,1,40,984.827l.048-.119A1.048,1.048,0,0,1,41.3,984.164Z" fill="#2b61d3"/>
    </g>
  </g>
</svg>
