<svg id="Icon_2" xmlns="http://www.w3.org/2000/svg" width="45" height="39" viewBox="0 0 45 39">
  <g id="Artboard" transform="translate(-104 -298)">
    <g id="Stacked-Group" transform="translate(92 55)">
      <path id="_2" data-name="2" d="M49.335,243H19.656a.9.9,0,0,0-.723.359l-.066.1-6.744,11.8a.913.913,0,0,0-.123.447,6.265,6.265,0,0,0,3.543,5.629l.233.108.12.184v19.465a.912.912,0,0,0,.8.9l.114.007H52.183a.914.914,0,0,0,.9-.793l.007-.113V261.708l-.043-.176.156-.068A6.288,6.288,0,0,0,57,255.709a.845.845,0,0,0-.068-.341l-.054-.1-6.754-11.8a.922.922,0,0,0-.669-.453ZM45.29,258.964l.167.247a6.311,6.311,0,0,0,4.968,2.765l.314.005.275-.008h.257v18.216H32.526V268.046a3.605,3.605,0,0,0-3.42-3.584l-.191-.005H25.677a3.608,3.608,0,0,0-3.606,3.4l-.005.19V280.2H17.719v-18.24l.338.022c.064,0,.14,0,.254,0a6.312,6.312,0,0,0,5.083-2.559l.15-.211.167-.247.167.247a6.326,6.326,0,0,0,10.314.211l.151-.212.168-.245.167.246a6.309,6.309,0,0,0,10.3.211l.15-.211Zm-16.365,7.3a1.783,1.783,0,0,1,1.782,1.631l.006.146v12.142H23.9V268.046a1.781,1.781,0,0,1,1.641-1.771l.147-.006Zm15.131-1.812H37.892l-.174,0a2.855,2.855,0,0,0-2.687,2.665l-.005.172V272l0,.173a2.855,2.855,0,0,0,2.681,2.67l.174.005H44.05l.174,0a2.855,2.855,0,0,0,2.687-2.665l.005-.172v-4.7l0-.173a2.855,2.855,0,0,0-2.681-2.67Zm0,1.812a1.037,1.037,0,0,1,1.031.919l.006.112v4.715l-.008.117a1.038,1.038,0,0,1-.91.894l-.119.007H37.874l-.118-.008a1.037,1.037,0,0,1-.9-.9L36.849,272v-4.715l.008-.117a1.038,1.038,0,0,1,.91-.894l.119-.007Zm11.1-10-.043.236a4.492,4.492,0,0,1-8.788.208l-.042-.209-.042-.235Zm-10.8-.009-.042.235a4.486,4.486,0,0,1-8.779.209l-.042-.209-.042-.235Zm-10.79,0-.042.235a4.492,4.492,0,0,1-8.787.21l-.043-.209-.043-.236Zm-10.79,0-.042.235a4.492,4.492,0,0,1-8.788.209l-.042-.209-.042-.235Zm25.913-11.434.175.1,5.45,9.53H14.689l5.441-9.53.176-.1Z" fill="#2b61d3"/>
    </g>
  </g>
</svg>
