<svg id="Icon_1" xmlns="http://www.w3.org/2000/svg" width="44" height="44" viewBox="0 0 44 44">
  <g id="Artboard" transform="translate(-104 -204)">
    <g id="Stacked-Group" transform="translate(92 55)">
      <path id="_1" data-name="1" d="M17.5,176.754a5.493,5.493,0,0,1,4.271,8.953l-.189.22.137.133a17.8,17.8,0,0,0,11.428,4.926l.427.016.428.005a17.655,17.655,0,0,0,6.785-1.345,1,1,0,1,1,.763,1.842,19.729,19.729,0,0,1-21.387-4.179l-.175-.175-.106.055a5.455,5.455,0,0,1-1.762.511l-.309.026-.312.009a5.5,5.5,0,0,1,0-11Zm25.469-20a1,1,0,0,1,1.372-.327,19.659,19.659,0,0,1,9.014,20.707l-.082.375.047.027a5.5,5.5,0,0,1,2.661,4.235l.016.242.005.244a5.5,5.5,0,1,1-4.654-5.433l.032.005.064-.313a17.915,17.915,0,0,0,.277-2.18l.026-.542.009-.54a17.654,17.654,0,0,0-8.462-15.129A1,1,0,0,1,42.967,156.749Zm7.535,22a3.5,3.5,0,1,0,3.5,3.5A3.508,3.508,0,0,0,50.5,178.748Zm-33,0a3.5,3.5,0,1,0,3.5,3.5A3.508,3.508,0,0,0,17.5,178.748ZM34,149a5.5,5.5,0,1,1-5.034,7.7l-.088-.213-.075-.2-.119.037a17.657,17.657,0,0,0-12.323,14.935l-.037.363-.029.365a1,1,0,0,1-.994.927l-.07,0a1,1,0,0,1-.925-1.064,19.651,19.651,0,0,1,14.008-17.494l.193-.057v-.028a5.506,5.506,0,0,1,5.053-5.246l.224-.013Zm0,1.995a3.5,3.5,0,1,0,3.5,3.5A3.508,3.508,0,0,0,34,150.995Z" fill="#2b61d3"/>
    </g>
  </g>
</svg>
